<svg id="Layer_2" data-name="Layer 2" xmlns="http://www.w3.org/2000/svg" viewBox="0 0 324.3 381.27"><defs><style>.cls-1,.cls-2{fill:#010101;}.cls-2{stroke:#000;stroke-miterlimit:10;stroke-width:10px;}</style></defs><path class="cls-1" d="M166.93,167.71a43.28,43.28,0,1,0-43.28-43.27A43.27,43.27,0,0,0,166.93,167.71Zm17.14,16.23H149.79A58.59,58.59,0,0,0,91.2,242.52a11.72,11.72,0,0,0,11.72,11.72h128a11.7,11.7,0,0,0,11.71-11.72A58.58,58.58,0,0,0,184.07,183.94Z" transform="translate(-4.78 -2.73)"/><path class="cls-2" d="M21.88,78.76A342.57,342.57,0,0,0,35.42,198c17.17,57.18,54.09,121.62,131.51,167,77.42-45.42,114.33-109.86,131.5-167A342.57,342.57,0,0,0,312,78.76c-41.38-1.54-74.41-12-99.05-23.81a206.34,206.34,0,0,1-46-29.84,206.34,206.34,0,0,1-46,29.84C96.3,66.79,63.26,77.22,21.88,78.76Zm2.61,122.52C6.47,141.32,9.41,89,11,72.68l.48-5.05,5.1-.1c41.87-.8,75-11.09,99.49-22.85s40-24.82,47-31.41l3.91-3.67,3.9,3.67c7,6.59,22.67,19.72,47,31.41s57.62,22.05,99.48,22.85l5.1.1.48,5.05c1.55,16.29,4.49,68.64-13.52,128.6-18.07,60.16-57.15,128.07-139.61,175.33l-2.83,1.63-2.84-1.63C81.63,329.34,42.56,261.44,24.49,201.28Z" transform="translate(-4.78 -2.73)"/></svg>