<svg id="Layer_2" data-name="Layer 2" xmlns="http://www.w3.org/2000/svg" viewBox="0 0 314.3 368.64"><defs><style>.cls-1{fill:#010101;}</style></defs><path class="cls-1" d="M157.15,165.31a51.72,51.72,0,1,0-51.72-51.72A51.71,51.71,0,0,0,157.15,165.31Zm20.49,19.39h-41a70,70,0,0,0-70,70,14,14,0,0,0,14,14h153a14,14,0,0,0,14-14A70,70,0,0,0,177.64,184.7Z"/><path class="cls-1" d="M12.11,69.17A342.71,342.71,0,0,0,25.64,188.42C42.82,245.6,79.73,310,157.15,355.46c77.42-45.42,114.33-109.86,131.51-167A343,343,0,0,0,302.2,69.17c-41.39-1.55-74.42-12-99.06-23.82a206,206,0,0,1-46-29.84,206,206,0,0,1-46,29.84c-24.64,11.84-57.67,22.27-99,23.82Zm2.6,122.51C-3.3,131.72-.36,79.37,1.18,63.09L1.67,58l5.09-.1c41.87-.79,75-11.09,99.49-22.85s40-24.81,47-31.41L157.15,0l3.91,3.67c7,6.6,22.66,19.72,47,31.41s57.62,22.06,99.49,22.85l5.1.1.48,5.06c1.55,16.28,4.48,68.63-13.53,128.59C281.52,251.84,242.45,319.75,160,367l-2.84,1.62L154.32,367C71.85,319.75,32.78,251.84,14.71,191.68Z"/></svg>